G75*
%MOIN*%
%OFA0B0*%
%FSLAX25Y25*%
%IPPOS*%
%LPD*%
%AMOC8*
5,1,8,0,0,1.08239X$1,22.5*
%
%ADD10C,0.00300*%
%ADD11C,0.00400*%
%ADD12C,0.00600*%
%ADD13C,0.00500*%
D10*
X0251208Y0107561D02*
X0251826Y0106944D01*
X0253060Y0106944D01*
X0253677Y0107561D01*
X0254892Y0107561D02*
X0255509Y0106944D01*
X0256743Y0106944D01*
X0257360Y0107561D01*
X0257360Y0110030D01*
X0256743Y0110647D01*
X0255509Y0110647D01*
X0254892Y0110030D01*
X0253677Y0110030D02*
X0253060Y0110647D01*
X0251826Y0110647D01*
X0251208Y0110030D01*
X0251208Y0109413D01*
X0251826Y0108796D01*
X0251208Y0108178D01*
X0251208Y0107561D01*
X0251826Y0108796D02*
X0252443Y0108796D01*
X0331439Y0205251D02*
X0330822Y0205868D01*
X0330822Y0207102D01*
X0331439Y0207720D01*
X0331439Y0208934D02*
X0330822Y0209551D01*
X0330822Y0210786D01*
X0331439Y0211403D01*
X0332673Y0211403D01*
X0333290Y0210786D01*
X0333290Y0210168D01*
X0332673Y0208934D01*
X0334525Y0208934D01*
X0334525Y0211403D01*
X0333908Y0207720D02*
X0334525Y0207102D01*
X0334525Y0205868D01*
X0333908Y0205251D01*
X0331439Y0205251D01*
X0330927Y0243125D02*
X0330310Y0243742D01*
X0330310Y0244976D01*
X0330927Y0245594D01*
X0330927Y0246808D02*
X0330310Y0247425D01*
X0330310Y0248660D01*
X0330927Y0249277D01*
X0331544Y0249277D01*
X0332161Y0248660D01*
X0332161Y0246808D01*
X0330927Y0246808D01*
X0332161Y0246808D02*
X0333396Y0248042D01*
X0334013Y0249277D01*
X0333396Y0245594D02*
X0334013Y0244976D01*
X0334013Y0243742D01*
X0333396Y0243125D01*
X0330927Y0243125D01*
X0245198Y0240081D02*
X0243346Y0238229D01*
X0243346Y0240698D01*
X0241495Y0240081D02*
X0245198Y0240081D01*
X0244581Y0237015D02*
X0245198Y0236398D01*
X0245198Y0235164D01*
X0244581Y0234546D01*
X0242112Y0234546D01*
X0241495Y0235164D01*
X0241495Y0236398D01*
X0242112Y0237015D01*
D11*
X0052146Y0025502D02*
X0049077Y0025502D01*
X0052146Y0025502D02*
X0049077Y0028571D01*
X0049077Y0029338D01*
X0049845Y0030106D01*
X0051379Y0030106D01*
X0052146Y0029338D01*
X0053681Y0029338D02*
X0053681Y0027804D01*
X0054448Y0027036D01*
X0056750Y0027036D01*
X0056750Y0025502D02*
X0056750Y0030106D01*
X0054448Y0030106D01*
X0053681Y0029338D01*
X0055216Y0027036D02*
X0053681Y0025502D01*
X0049239Y0061959D02*
X0044635Y0061959D01*
X0046170Y0061959D02*
X0046170Y0064260D01*
X0046937Y0065028D01*
X0048472Y0065028D01*
X0049239Y0064260D01*
X0049239Y0061959D01*
X0046170Y0063493D02*
X0044635Y0065028D01*
X0044635Y0066562D02*
X0044635Y0069632D01*
X0044635Y0071166D02*
X0044635Y0074236D01*
X0044635Y0072701D02*
X0049239Y0072701D01*
X0047705Y0071166D01*
X0049239Y0068097D02*
X0044635Y0068097D01*
X0047705Y0066562D02*
X0049239Y0068097D01*
X0080502Y0145349D02*
X0085105Y0145349D01*
X0085105Y0147651D01*
X0084338Y0148418D01*
X0082804Y0148418D01*
X0082036Y0147651D01*
X0082036Y0145349D01*
X0082036Y0146884D02*
X0080502Y0148418D01*
X0081269Y0149953D02*
X0082036Y0149953D01*
X0082804Y0150720D01*
X0082804Y0152255D01*
X0082036Y0153022D01*
X0081269Y0153022D01*
X0080502Y0152255D01*
X0080502Y0150720D01*
X0081269Y0149953D01*
X0082804Y0150720D02*
X0083571Y0149953D01*
X0084338Y0149953D01*
X0085105Y0150720D01*
X0085105Y0152255D01*
X0084338Y0153022D01*
X0083571Y0153022D01*
X0082804Y0152255D01*
X0091013Y0173533D02*
X0095617Y0173533D01*
X0095617Y0175835D01*
X0094850Y0176603D01*
X0093315Y0176603D01*
X0092548Y0175835D01*
X0092548Y0173533D01*
X0092548Y0175068D02*
X0091013Y0176603D01*
X0091013Y0178137D02*
X0091013Y0181207D01*
X0091013Y0179672D02*
X0095617Y0179672D01*
X0094083Y0178137D01*
X0094850Y0182741D02*
X0091781Y0182741D01*
X0094850Y0185810D01*
X0091781Y0185810D01*
X0091013Y0185043D01*
X0091013Y0183508D01*
X0091781Y0182741D01*
X0094850Y0182741D02*
X0095617Y0183508D01*
X0095617Y0185043D01*
X0094850Y0185810D01*
X0076444Y0182486D02*
X0076444Y0180952D01*
X0075677Y0180184D01*
X0075677Y0178650D02*
X0076444Y0177883D01*
X0076444Y0175581D01*
X0071840Y0175581D01*
X0071840Y0177883D01*
X0072607Y0178650D01*
X0075677Y0178650D01*
X0076444Y0182486D02*
X0075677Y0183254D01*
X0074909Y0183254D01*
X0071840Y0180184D01*
X0071840Y0183254D01*
X0068137Y0181822D02*
X0068137Y0180287D01*
X0067370Y0179520D01*
X0067370Y0177985D02*
X0064300Y0177985D01*
X0063533Y0177218D01*
X0063533Y0174916D01*
X0068137Y0174916D01*
X0068137Y0177218D01*
X0067370Y0177985D01*
X0065835Y0181055D02*
X0065835Y0181822D01*
X0065068Y0182589D01*
X0064300Y0182589D01*
X0063533Y0181822D01*
X0063533Y0180287D01*
X0064300Y0179520D01*
X0065835Y0181822D02*
X0066602Y0182589D01*
X0067370Y0182589D01*
X0068137Y0181822D01*
X0148100Y0173929D02*
X0148867Y0173929D01*
X0151937Y0176999D01*
X0152704Y0176999D01*
X0152704Y0173929D01*
X0151937Y0172395D02*
X0150402Y0172395D01*
X0149635Y0171627D01*
X0149635Y0169325D01*
X0148100Y0169325D02*
X0152704Y0169325D01*
X0152704Y0171627D01*
X0151937Y0172395D01*
X0149635Y0170860D02*
X0148100Y0172395D01*
X0205027Y0229301D02*
X0205027Y0230068D01*
X0205794Y0230835D01*
X0208096Y0230835D01*
X0208096Y0229301D01*
X0207329Y0228533D01*
X0205794Y0228533D01*
X0205027Y0229301D01*
X0206561Y0232370D02*
X0208096Y0230835D01*
X0209631Y0230835D02*
X0210398Y0230068D01*
X0212700Y0230068D01*
X0211165Y0230068D02*
X0209631Y0228533D01*
X0209631Y0230835D02*
X0209631Y0232370D01*
X0210398Y0233137D01*
X0212700Y0233137D01*
X0212700Y0228533D01*
X0206561Y0232370D02*
X0205027Y0233137D01*
X0224163Y0243656D02*
X0224163Y0245958D01*
X0224930Y0246725D01*
X0228000Y0246725D01*
X0228767Y0245958D01*
X0228767Y0243656D01*
X0224163Y0243656D01*
X0224163Y0248260D02*
X0224163Y0251329D01*
X0224163Y0249795D02*
X0228767Y0249795D01*
X0227232Y0248260D01*
X0238867Y0231207D02*
X0238100Y0230439D01*
X0238100Y0228905D01*
X0238867Y0228137D01*
X0240402Y0228137D02*
X0241169Y0229672D01*
X0241169Y0230439D01*
X0240402Y0231207D01*
X0238867Y0231207D01*
X0240402Y0228137D02*
X0242704Y0228137D01*
X0242704Y0231207D01*
X0241937Y0226603D02*
X0240402Y0226603D01*
X0239635Y0225835D01*
X0239635Y0223533D01*
X0239635Y0225068D02*
X0238100Y0226603D01*
X0238100Y0223533D02*
X0242704Y0223533D01*
X0242704Y0225835D01*
X0241937Y0226603D01*
X0298100Y0249325D02*
X0302704Y0249325D01*
X0302704Y0251627D01*
X0301937Y0252395D01*
X0300402Y0252395D01*
X0299635Y0251627D01*
X0299635Y0249325D01*
X0299635Y0250860D02*
X0298100Y0252395D01*
X0298867Y0253929D02*
X0298100Y0254697D01*
X0298100Y0256231D01*
X0298867Y0256999D01*
X0301937Y0256999D01*
X0302704Y0256231D01*
X0302704Y0254697D01*
X0301937Y0253929D01*
X0301169Y0253929D01*
X0300402Y0254697D01*
X0300402Y0256999D01*
X0211519Y0090027D02*
X0209217Y0090027D01*
X0208450Y0089260D01*
X0208450Y0087725D01*
X0209217Y0086958D01*
X0211519Y0086958D01*
X0209984Y0086958D02*
X0208450Y0085423D01*
X0206915Y0086190D02*
X0206148Y0085423D01*
X0204613Y0085423D01*
X0203846Y0086190D01*
X0203846Y0086958D01*
X0204613Y0087725D01*
X0205380Y0087725D01*
X0204613Y0087725D02*
X0203846Y0088492D01*
X0203846Y0089260D01*
X0204613Y0090027D01*
X0206148Y0090027D01*
X0206915Y0089260D01*
X0211519Y0090027D02*
X0211519Y0085423D01*
X0211361Y0081720D02*
X0209059Y0081720D01*
X0208292Y0080953D01*
X0208292Y0079418D01*
X0209059Y0078651D01*
X0211361Y0078651D01*
X0209827Y0078651D02*
X0208292Y0077116D01*
X0206757Y0079418D02*
X0203688Y0079418D01*
X0204456Y0081720D02*
X0206757Y0079418D01*
X0204456Y0077116D02*
X0204456Y0081720D01*
X0211361Y0081720D02*
X0211361Y0077116D01*
D12*
X0302900Y0074833D02*
X0302900Y0094333D01*
X0302900Y0101833D02*
X0302902Y0101909D01*
X0302908Y0101985D01*
X0302917Y0102060D01*
X0302931Y0102135D01*
X0302948Y0102209D01*
X0302969Y0102282D01*
X0302993Y0102354D01*
X0303022Y0102425D01*
X0303053Y0102494D01*
X0303088Y0102561D01*
X0303127Y0102626D01*
X0303169Y0102690D01*
X0303214Y0102751D01*
X0303262Y0102810D01*
X0303313Y0102866D01*
X0303367Y0102920D01*
X0303423Y0102971D01*
X0303482Y0103019D01*
X0303543Y0103064D01*
X0303607Y0103106D01*
X0303672Y0103145D01*
X0303739Y0103180D01*
X0303808Y0103211D01*
X0303879Y0103240D01*
X0303951Y0103264D01*
X0304024Y0103285D01*
X0304098Y0103302D01*
X0304173Y0103316D01*
X0304248Y0103325D01*
X0304324Y0103331D01*
X0304400Y0103333D01*
X0311400Y0103333D02*
X0324400Y0103333D01*
X0331400Y0103333D02*
X0331476Y0103331D01*
X0331552Y0103325D01*
X0331627Y0103316D01*
X0331702Y0103302D01*
X0331776Y0103285D01*
X0331849Y0103264D01*
X0331921Y0103240D01*
X0331992Y0103211D01*
X0332061Y0103180D01*
X0332128Y0103145D01*
X0332193Y0103106D01*
X0332257Y0103064D01*
X0332318Y0103019D01*
X0332377Y0102971D01*
X0332433Y0102920D01*
X0332487Y0102866D01*
X0332538Y0102810D01*
X0332586Y0102751D01*
X0332631Y0102690D01*
X0332673Y0102626D01*
X0332712Y0102561D01*
X0332747Y0102494D01*
X0332778Y0102425D01*
X0332807Y0102354D01*
X0332831Y0102282D01*
X0332852Y0102209D01*
X0332869Y0102135D01*
X0332883Y0102060D01*
X0332892Y0101985D01*
X0332898Y0101909D01*
X0332900Y0101833D01*
X0332900Y0094333D02*
X0332900Y0074833D01*
X0332898Y0074757D01*
X0332892Y0074681D01*
X0332883Y0074606D01*
X0332869Y0074531D01*
X0332852Y0074457D01*
X0332831Y0074384D01*
X0332807Y0074312D01*
X0332778Y0074241D01*
X0332747Y0074172D01*
X0332712Y0074105D01*
X0332673Y0074040D01*
X0332631Y0073976D01*
X0332586Y0073915D01*
X0332538Y0073856D01*
X0332487Y0073800D01*
X0332433Y0073746D01*
X0332377Y0073695D01*
X0332318Y0073647D01*
X0332257Y0073602D01*
X0332193Y0073560D01*
X0332128Y0073521D01*
X0332061Y0073486D01*
X0331992Y0073455D01*
X0331921Y0073426D01*
X0331849Y0073402D01*
X0331776Y0073381D01*
X0331702Y0073364D01*
X0331627Y0073350D01*
X0331552Y0073341D01*
X0331476Y0073335D01*
X0331400Y0073333D01*
X0321400Y0073333D01*
X0314400Y0073333D02*
X0304400Y0073333D01*
X0304324Y0073335D01*
X0304248Y0073341D01*
X0304173Y0073350D01*
X0304098Y0073364D01*
X0304024Y0073381D01*
X0303951Y0073402D01*
X0303879Y0073426D01*
X0303808Y0073455D01*
X0303739Y0073486D01*
X0303672Y0073521D01*
X0303607Y0073560D01*
X0303543Y0073602D01*
X0303482Y0073647D01*
X0303423Y0073695D01*
X0303367Y0073746D01*
X0303313Y0073800D01*
X0303262Y0073856D01*
X0303214Y0073915D01*
X0303169Y0073976D01*
X0303127Y0074040D01*
X0303088Y0074105D01*
X0303053Y0074172D01*
X0303022Y0074241D01*
X0302993Y0074312D01*
X0302969Y0074384D01*
X0302948Y0074457D01*
X0302931Y0074531D01*
X0302917Y0074606D01*
X0302908Y0074681D01*
X0302902Y0074757D01*
X0302900Y0074833D01*
X0312900Y0083333D02*
X0313900Y0084333D01*
X0316900Y0084833D02*
X0318900Y0084833D01*
X0318900Y0087333D01*
X0321400Y0087333D01*
X0321400Y0089333D01*
X0318900Y0089333D01*
X0318900Y0091833D01*
X0316900Y0091833D01*
X0316900Y0089333D01*
X0314400Y0089333D01*
X0314400Y0087333D01*
X0316900Y0087333D01*
X0316900Y0084833D01*
X0321900Y0084333D02*
X0322900Y0083333D01*
X0323400Y0088333D02*
X0325400Y0088333D01*
X0321400Y0091833D02*
X0323400Y0093833D01*
X0314400Y0091833D02*
X0312400Y0093833D01*
X0312400Y0088333D02*
X0310400Y0088333D01*
X0174400Y0172533D02*
X0174400Y0183933D01*
X0171400Y0183933D01*
X0171400Y0172533D01*
X0174400Y0172533D01*
X0207300Y0251833D02*
X0207300Y0254833D01*
X0218700Y0254833D01*
X0218700Y0251833D01*
X0207300Y0251833D01*
X0316400Y0247533D02*
X0319400Y0247533D01*
X0319400Y0258933D01*
X0316400Y0258933D01*
X0316400Y0247533D01*
X0063101Y0087083D02*
X0063101Y0075683D01*
X0060101Y0075683D01*
X0060101Y0087083D01*
X0063101Y0087083D01*
D13*
X0070032Y0083466D02*
X0070032Y0080464D01*
X0073034Y0083466D01*
X0073785Y0083466D01*
X0074536Y0082716D01*
X0074536Y0081214D01*
X0073785Y0080464D01*
X0074536Y0078862D02*
X0074536Y0075860D01*
X0074536Y0077361D02*
X0070032Y0077361D01*
X0071533Y0074258D02*
X0074536Y0074258D01*
X0074536Y0071256D02*
X0071533Y0071256D01*
X0070032Y0072757D01*
X0071533Y0074258D01*
X0176651Y0180272D02*
X0175150Y0181773D01*
X0176651Y0183274D01*
X0179654Y0183274D01*
X0179654Y0184875D02*
X0179654Y0187878D01*
X0179654Y0186377D02*
X0175150Y0186377D01*
X0175901Y0189479D02*
X0175150Y0190230D01*
X0175150Y0191731D01*
X0175901Y0192482D01*
X0176651Y0192482D01*
X0177402Y0191731D01*
X0177402Y0190981D01*
X0177402Y0191731D02*
X0178153Y0192482D01*
X0178903Y0192482D01*
X0179654Y0191731D01*
X0179654Y0190230D01*
X0178903Y0189479D01*
X0179654Y0180272D02*
X0176651Y0180272D01*
X0218751Y0260583D02*
X0221754Y0260583D01*
X0220253Y0260583D02*
X0220253Y0265087D01*
X0221754Y0263586D01*
X0223355Y0265087D02*
X0226358Y0265087D01*
X0224857Y0265087D02*
X0224857Y0260583D01*
X0227959Y0262085D02*
X0227959Y0265087D01*
X0227959Y0262085D02*
X0229461Y0260583D01*
X0230962Y0262085D01*
X0230962Y0265087D01*
X0320150Y0241731D02*
X0324654Y0241731D01*
X0322402Y0239479D01*
X0322402Y0242482D01*
X0324654Y0237878D02*
X0324654Y0234875D01*
X0324654Y0236377D02*
X0320150Y0236377D01*
X0321651Y0233274D02*
X0320150Y0231773D01*
X0321651Y0230272D01*
X0324654Y0230272D01*
X0324654Y0233274D02*
X0321651Y0233274D01*
X0306858Y0086587D02*
X0304606Y0086587D01*
X0303855Y0085837D01*
X0303855Y0084335D01*
X0304606Y0083585D01*
X0306858Y0083585D01*
X0305357Y0083585D02*
X0303855Y0082083D01*
X0302254Y0082083D02*
X0299251Y0082083D01*
X0300753Y0082083D02*
X0300753Y0086587D01*
X0302254Y0085086D01*
X0306858Y0086587D02*
X0306858Y0082083D01*
M02*
