G75*
%MOIN*%
%OFA0B0*%
%FSLAX25Y25*%
%IPPOS*%
%LPD*%
%AMOC8*
5,1,8,0,0,1.08239X$1,22.5*
%
%ADD10C,0.06300*%
%ADD11OC8,0.06300*%
%ADD12R,0.05118X0.06299*%
%ADD13R,0.06299X0.05118*%
%ADD14R,0.05512X0.05512*%
%ADD15C,0.06496*%
%ADD16C,0.07874*%
%ADD17C,0.09843*%
%ADD18R,0.06600X0.06600*%
%ADD19C,0.06600*%
%ADD20R,0.03500X0.03100*%
%ADD21C,0.07600*%
%ADD22C,0.10000*%
%ADD23R,0.10000X0.10000*%
%ADD24R,0.08600X0.08600*%
%ADD25R,0.03100X0.03500*%
%ADD26C,0.06600*%
%ADD27R,0.07874X0.05906*%
%ADD28C,0.01575*%
%ADD29C,0.05600*%
%ADD30C,0.02362*%
%ADD31C,0.01600*%
%ADD32C,0.03150*%
D10*
X0357833Y0218333D03*
X0357833Y0253333D03*
D11*
X0357833Y0243333D03*
X0357833Y0208333D03*
D12*
X0247951Y0119239D03*
X0240077Y0119239D03*
X0225392Y0085223D03*
X0217912Y0085223D03*
X0217755Y0076916D03*
X0225235Y0076916D03*
X0056416Y0035302D03*
X0048936Y0035302D03*
X0209093Y0238333D03*
X0216573Y0238333D03*
D13*
X0232833Y0232073D03*
X0232833Y0224593D03*
X0242833Y0244396D03*
X0242833Y0252270D03*
X0307833Y0249593D03*
X0307833Y0257073D03*
X0157833Y0182073D03*
X0157833Y0174593D03*
X0090747Y0167073D03*
X0090747Y0159593D03*
X0082164Y0159593D03*
X0082164Y0167073D03*
X0047322Y0085223D03*
X0047322Y0077743D03*
D14*
X0066101Y0155577D03*
X0073621Y0155577D03*
X0073621Y0170538D03*
X0066101Y0170538D03*
X0232833Y0240853D03*
X0232833Y0255814D03*
D15*
X0307833Y0101581D02*
X0307833Y0095085D01*
X0327833Y0095085D02*
X0327833Y0101581D01*
X0321081Y0078333D02*
X0314585Y0078333D01*
X0259881Y0025381D02*
X0259881Y0018885D01*
X0249881Y0018885D02*
X0249881Y0025381D01*
X0239881Y0025381D02*
X0239881Y0018885D01*
X0229881Y0018885D02*
X0229881Y0025381D01*
X0219881Y0025381D02*
X0219881Y0018885D01*
X0209881Y0018885D02*
X0209881Y0025381D01*
X0199881Y0025381D02*
X0199881Y0018885D01*
X0189881Y0018885D02*
X0189881Y0025381D01*
X0179881Y0025381D02*
X0179881Y0018885D01*
X0169881Y0018885D02*
X0169881Y0025381D01*
X0159881Y0025381D02*
X0159881Y0018885D01*
X0149881Y0018885D02*
X0149881Y0025381D01*
X0139881Y0025381D02*
X0139881Y0018885D01*
X0129881Y0018885D02*
X0129881Y0025381D01*
X0119881Y0025381D02*
X0119881Y0018885D01*
X0109881Y0018885D02*
X0109881Y0025381D01*
X0099881Y0025381D02*
X0099881Y0018885D01*
X0089881Y0018885D02*
X0089881Y0025381D01*
X0079881Y0025381D02*
X0079881Y0018885D01*
X0069881Y0018885D02*
X0069881Y0025381D01*
D16*
X0027833Y0043333D03*
X0027833Y0053333D03*
X0025589Y0123333D03*
X0025589Y0133333D03*
X0025589Y0143333D03*
X0027833Y0178333D03*
X0027833Y0188333D03*
X0212833Y0278333D03*
X0222833Y0278333D03*
X0367833Y0103333D03*
X0367833Y0093333D03*
X0367833Y0083333D03*
X0367833Y0073333D03*
X0292833Y0028333D03*
X0282833Y0028333D03*
D17*
X0027833Y0108333D03*
X0027833Y0158333D03*
D18*
X0187833Y0168333D03*
X0212833Y0138333D03*
X0240727Y0108333D03*
X0240727Y0048333D03*
X0347833Y0118333D03*
X0347833Y0188333D03*
D19*
X0337833Y0188333D03*
X0327833Y0188333D03*
X0317833Y0188333D03*
X0307833Y0188333D03*
X0297833Y0188333D03*
X0287833Y0188333D03*
X0272833Y0138333D03*
X0262833Y0138333D03*
X0252833Y0138333D03*
X0242833Y0138333D03*
X0232833Y0138333D03*
X0222833Y0138333D03*
X0187833Y0148333D03*
X0187833Y0158333D03*
X0187833Y0178333D03*
X0190727Y0108333D03*
X0180727Y0108333D03*
X0170727Y0108333D03*
X0160727Y0108333D03*
X0150727Y0108333D03*
X0140727Y0108333D03*
X0130727Y0108333D03*
X0120727Y0108333D03*
X0110727Y0108333D03*
X0100727Y0108333D03*
X0090727Y0108333D03*
X0080727Y0108333D03*
X0070727Y0108333D03*
X0060727Y0108333D03*
X0050727Y0108333D03*
X0050727Y0048333D03*
X0060727Y0048333D03*
X0070727Y0048333D03*
X0080727Y0048333D03*
X0090727Y0048333D03*
X0100727Y0048333D03*
X0110727Y0048333D03*
X0120727Y0048333D03*
X0130727Y0048333D03*
X0140727Y0048333D03*
X0150727Y0048333D03*
X0160727Y0048333D03*
X0170727Y0048333D03*
X0180727Y0048333D03*
X0190727Y0048333D03*
X0200727Y0048333D03*
X0210727Y0048333D03*
X0220727Y0048333D03*
X0230727Y0048333D03*
X0230727Y0108333D03*
X0220727Y0108333D03*
X0210727Y0108333D03*
X0200727Y0108333D03*
X0287833Y0118333D03*
X0297833Y0118333D03*
X0307833Y0118333D03*
X0317833Y0118333D03*
X0327833Y0118333D03*
X0337833Y0118333D03*
X0357833Y0118333D03*
X0357833Y0188333D03*
D20*
X0313833Y0249433D03*
X0313833Y0257033D03*
X0321833Y0253233D03*
X0176833Y0178233D03*
X0168833Y0174433D03*
X0168833Y0182033D03*
X0057534Y0085183D03*
X0065534Y0081383D03*
X0057534Y0077583D03*
D21*
X0302833Y0223333D03*
X0327833Y0223333D03*
X0327833Y0273333D03*
X0302833Y0273333D03*
D22*
X0267833Y0223333D03*
X0147833Y0223333D03*
D23*
X0147833Y0248333D03*
X0267833Y0248333D03*
D24*
X0112833Y0250833D03*
X0112833Y0263333D03*
X0097833Y0263333D03*
X0112833Y0220833D03*
X0112833Y0208333D03*
X0097833Y0208333D03*
X0022833Y0208333D03*
X0022833Y0263333D03*
D25*
X0209133Y0249333D03*
X0216733Y0249333D03*
X0212933Y0257333D03*
D26*
X0312833Y0056633D02*
X0312833Y0050033D01*
X0322833Y0050033D02*
X0322833Y0056633D01*
X0342833Y0056633D02*
X0342833Y0050033D01*
X0352833Y0050033D02*
X0352833Y0056633D01*
X0336133Y0033333D02*
X0329533Y0033333D01*
D27*
X0343936Y0205262D03*
X0343936Y0217073D03*
X0343424Y0243136D03*
X0343424Y0254948D03*
D28*
X0313833Y0249433D02*
X0312833Y0248433D01*
X0312833Y0208333D01*
X0302833Y0198333D01*
X0282833Y0198333D01*
X0272833Y0188333D01*
X0212833Y0188333D01*
X0202833Y0178333D01*
X0202833Y0139239D01*
X0201416Y0137822D01*
X0157833Y0154081D02*
X0136455Y0132703D01*
X0157833Y0154081D02*
X0157833Y0174593D01*
X0216377Y0222467D02*
X0216377Y0238136D01*
X0216573Y0238333D01*
X0216377Y0222467D02*
X0240510Y0198333D01*
X0247833Y0198333D01*
X0297833Y0118333D02*
X0298266Y0117900D01*
X0298266Y0114987D01*
X0294329Y0111050D01*
X0269133Y0111050D01*
X0260077Y0101995D01*
X0106140Y0101995D01*
X0100727Y0107408D01*
X0100727Y0108333D01*
X0090727Y0108333D02*
X0090727Y0105597D01*
X0098266Y0098058D01*
X0261259Y0098058D01*
X0269920Y0106719D01*
X0302597Y0106719D01*
X0307715Y0111837D01*
X0307715Y0118215D01*
X0307833Y0118333D01*
X0307833Y0098333D02*
X0307558Y0098058D01*
X0272558Y0098058D01*
X0267833Y0093333D01*
X0085865Y0093333D01*
X0106101Y0079554D02*
X0106495Y0079160D01*
X0087833Y0063333D02*
X0332833Y0063333D01*
X0352833Y0083333D01*
X0367833Y0083333D01*
X0367833Y0093333D02*
X0357833Y0093333D01*
X0331062Y0066562D01*
X0080944Y0066562D01*
X0070727Y0056345D01*
X0070727Y0048333D01*
X0060727Y0048333D02*
X0060727Y0056188D01*
X0074644Y0070105D01*
X0328975Y0070105D01*
X0362046Y0103176D01*
X0367676Y0103176D01*
X0367833Y0103333D01*
X0282833Y0043333D02*
X0277833Y0038333D01*
X0247833Y0038333D01*
X0239881Y0030381D01*
X0239881Y0025381D01*
X0219920Y0025420D02*
X0219881Y0025381D01*
X0219920Y0025420D02*
X0219920Y0037034D01*
X0214408Y0042546D01*
X0173070Y0042546D01*
X0170727Y0044495D01*
X0170727Y0048333D01*
X0153385Y0039003D02*
X0206140Y0039003D01*
X0209684Y0035459D01*
X0209684Y0025577D01*
X0209881Y0025381D01*
X0202991Y0033097D02*
X0202203Y0033885D01*
X0114408Y0033885D01*
X0109881Y0029357D01*
X0109881Y0025381D01*
X0080727Y0048333D02*
X0080727Y0056227D01*
X0087833Y0063333D01*
X0096298Y0055538D02*
X0096298Y0055144D01*
X0150727Y0048333D02*
X0150727Y0041660D01*
X0153385Y0039003D01*
X0072833Y0119239D02*
X0073621Y0120026D01*
X0082164Y0192664D02*
X0082833Y0193333D01*
D29*
X0120707Y0166955D03*
X0110865Y0159475D03*
X0137833Y0178333D03*
X0136455Y0132703D03*
X0085865Y0093333D03*
X0069133Y0093333D03*
X0054172Y0068530D03*
X0106101Y0079554D03*
X0120707Y0087034D03*
X0201416Y0137822D03*
X0257833Y0126483D03*
X0237243Y0085459D03*
X0237243Y0076798D03*
X0272833Y0053333D03*
X0282833Y0043333D03*
X0202991Y0033097D03*
X0212833Y0198333D03*
X0247833Y0198333D03*
D30*
X0048936Y0035302D02*
X0042833Y0041404D01*
X0042833Y0053333D01*
X0047833Y0058333D01*
X0052833Y0058333D01*
X0065534Y0071034D01*
X0065534Y0081383D01*
X0057534Y0085183D02*
X0047362Y0085183D01*
X0047322Y0085223D02*
X0038778Y0085223D01*
X0037833Y0084278D02*
X0037833Y0048333D01*
X0032833Y0043333D01*
X0027833Y0043333D01*
X0027833Y0053333D02*
X0027833Y0093333D01*
X0037833Y0103333D01*
X0037833Y0108333D01*
X0048739Y0119239D01*
X0072833Y0119239D01*
X0240077Y0119239D01*
X0240727Y0118589D02*
X0240727Y0108333D01*
X0247951Y0119239D02*
X0268739Y0119239D01*
X0277833Y0128333D01*
X0347833Y0128333D01*
X0347833Y0118333D01*
X0347833Y0113333D01*
X0332833Y0098333D01*
X0327833Y0098333D01*
X0347833Y0128333D02*
X0377833Y0128333D01*
X0377833Y0073333D01*
X0367833Y0073333D01*
X0377833Y0073333D02*
X0377833Y0048333D01*
X0362833Y0033333D01*
X0332833Y0033333D01*
X0312833Y0033333D01*
X0297833Y0018333D01*
X0267833Y0018333D01*
X0260786Y0025381D01*
X0259881Y0025381D01*
X0230727Y0048333D02*
X0230727Y0056227D01*
X0232833Y0058333D01*
X0267833Y0058333D01*
X0272833Y0053333D01*
X0237125Y0076916D02*
X0225235Y0076916D01*
X0217912Y0077073D02*
X0217912Y0085223D01*
X0225629Y0085459D02*
X0237243Y0085459D01*
X0217833Y0058333D02*
X0099093Y0058333D01*
X0096298Y0055538D01*
X0095510Y0039790D02*
X0090786Y0035066D01*
X0084093Y0035066D01*
X0079762Y0030735D01*
X0079762Y0025499D01*
X0079881Y0025381D01*
X0069920Y0025420D02*
X0069920Y0031129D01*
X0065747Y0035302D01*
X0056416Y0035302D01*
X0054172Y0068530D02*
X0054172Y0077583D01*
X0057534Y0077583D01*
X0054172Y0077583D02*
X0047481Y0077583D01*
X0037833Y0084278D02*
X0037833Y0093333D01*
X0050727Y0106227D01*
X0050727Y0108333D01*
X0060727Y0108333D01*
X0073621Y0120026D02*
X0073621Y0155577D01*
X0066101Y0155577D02*
X0066101Y0151601D01*
X0047833Y0133333D01*
X0025589Y0133333D01*
X0022833Y0133333D01*
X0017833Y0138333D01*
X0017833Y0183333D01*
X0022833Y0188333D01*
X0027833Y0188333D01*
X0032833Y0188333D01*
X0042833Y0198333D01*
X0042833Y0238333D01*
X0055471Y0250971D01*
X0100471Y0250971D01*
X0112833Y0250833D01*
X0129566Y0240105D02*
X0137636Y0248176D01*
X0147676Y0248176D01*
X0147833Y0248333D01*
X0129566Y0240105D02*
X0129566Y0216089D01*
X0121810Y0208333D01*
X0112833Y0208333D01*
X0112617Y0220617D02*
X0102991Y0220617D01*
X0097833Y0215459D01*
X0097833Y0208333D01*
X0097715Y0208215D01*
X0064802Y0208215D01*
X0034920Y0178333D01*
X0027833Y0178333D01*
X0042833Y0173333D02*
X0042833Y0148333D01*
X0037833Y0143333D01*
X0025589Y0143333D01*
X0042833Y0173333D02*
X0062833Y0193333D01*
X0082833Y0193333D01*
X0122833Y0193333D01*
X0147833Y0218333D01*
X0147833Y0223333D01*
X0112833Y0220833D02*
X0112617Y0220617D01*
X0082164Y0192664D02*
X0082164Y0167073D01*
X0082164Y0159593D02*
X0090747Y0159593D01*
X0090865Y0159475D02*
X0110865Y0159475D01*
X0120589Y0167073D02*
X0120707Y0166955D01*
X0120589Y0167073D02*
X0090747Y0167073D01*
X0073621Y0170538D02*
X0066101Y0170538D01*
X0137833Y0178333D02*
X0141573Y0182073D01*
X0157833Y0182073D01*
X0168793Y0182073D01*
X0168833Y0182033D01*
X0176833Y0178233D02*
X0187733Y0178233D01*
X0187833Y0178333D01*
X0187833Y0168333D02*
X0192833Y0168333D01*
X0197833Y0173333D01*
X0197833Y0198333D01*
X0212833Y0198333D01*
X0197833Y0198333D02*
X0197833Y0248451D01*
X0198715Y0249333D01*
X0209133Y0249333D01*
X0209133Y0238373D01*
X0209093Y0238333D01*
X0216573Y0238333D02*
X0216733Y0238493D01*
X0216733Y0249333D01*
X0212933Y0257333D02*
X0212833Y0257433D01*
X0212833Y0278333D01*
X0222833Y0278333D02*
X0222833Y0288333D01*
X0267833Y0288333D01*
X0267833Y0248333D01*
X0263896Y0252270D01*
X0242833Y0252270D01*
X0242833Y0244396D02*
X0246770Y0244396D01*
X0267833Y0223333D01*
X0282833Y0238333D01*
X0282833Y0268333D01*
X0287833Y0273333D01*
X0302833Y0273333D01*
X0312833Y0263333D01*
X0312833Y0258033D01*
X0313833Y0257033D01*
X0307873Y0257033D01*
X0307833Y0257073D01*
X0307833Y0249593D02*
X0307993Y0249433D01*
X0313833Y0249433D01*
X0321833Y0253233D02*
X0321833Y0267333D01*
X0327833Y0273333D01*
X0337833Y0273333D01*
X0357833Y0253333D01*
X0356219Y0254948D01*
X0343424Y0254948D01*
X0343424Y0243136D02*
X0357636Y0243136D01*
X0357833Y0243333D01*
X0377833Y0243333D01*
X0377833Y0208333D01*
X0357833Y0208333D01*
X0357715Y0208215D01*
X0352597Y0208215D01*
X0349644Y0205262D01*
X0343936Y0205262D01*
X0343936Y0217073D02*
X0343936Y0222349D01*
X0344920Y0223333D01*
X0352833Y0223333D01*
X0357833Y0218333D01*
X0344920Y0223333D02*
X0327833Y0223333D01*
X0302833Y0223333D02*
X0292833Y0213333D01*
X0237833Y0213333D01*
X0232833Y0218333D01*
X0232833Y0224593D01*
X0232833Y0232073D02*
X0232833Y0240853D01*
X0232833Y0255814D02*
X0231314Y0257333D01*
X0212933Y0257333D01*
X0197833Y0248451D02*
X0197833Y0283333D01*
X0202833Y0288333D01*
X0222833Y0288333D01*
X0267833Y0288333D02*
X0342833Y0288333D01*
X0377833Y0253333D01*
X0377833Y0243333D01*
X0377833Y0208333D02*
X0377833Y0128333D01*
X0257833Y0126483D02*
X0255983Y0128333D01*
X0217833Y0128333D01*
X0212833Y0133333D01*
X0212833Y0138333D01*
X0168833Y0174433D02*
X0168673Y0174593D01*
X0157833Y0174593D01*
X0217833Y0058333D02*
X0220727Y0055440D01*
X0220727Y0048333D01*
D31*
X0217755Y0076916D02*
X0217912Y0077073D01*
X0217755Y0076916D02*
X0108739Y0076916D01*
X0106101Y0079554D01*
X0120707Y0087034D02*
X0075432Y0087034D01*
X0069133Y0093333D01*
X0047362Y0085183D02*
X0047322Y0085223D01*
X0038778Y0085223D02*
X0037833Y0084278D01*
X0047322Y0077743D02*
X0047481Y0077583D01*
X0095707Y0054751D02*
X0096298Y0055144D01*
X0095707Y0054751D02*
X0095707Y0040499D01*
X0095510Y0040105D01*
X0095510Y0039790D01*
X0069920Y0025420D02*
X0069881Y0025381D01*
X0225392Y0085223D02*
X0225629Y0085459D01*
X0237125Y0076916D02*
X0237243Y0076798D01*
X0240727Y0118589D02*
X0240077Y0119239D01*
X0090865Y0159475D02*
X0090747Y0159593D01*
D32*
X0097833Y0263333D02*
X0112833Y0263333D01*
M02*
