G75*
%MOIN*%
%OFA0B0*%
%FSLAX25Y25*%
%IPPOS*%
%LPD*%
%AMOC8*
5,1,8,0,0,1.08239X$1,22.5*
%
%ADD10C,0.06300*%
%ADD11OC8,0.06300*%
%ADD12C,0.06496*%
%ADD13C,0.07874*%
%ADD14C,0.09843*%
%ADD15R,0.06600X0.06600*%
%ADD16C,0.06600*%
%ADD17C,0.07600*%
%ADD18C,0.10000*%
%ADD19R,0.10000X0.10000*%
%ADD20R,0.08600X0.08600*%
%ADD21C,0.06600*%
%ADD22C,0.01200*%
%ADD23C,0.01600*%
%ADD24C,0.02362*%
%ADD25C,0.05600*%
%ADD26C,0.01575*%
D10*
X0357833Y0218333D03*
X0357833Y0253333D03*
D11*
X0357833Y0243333D03*
X0357833Y0208333D03*
D12*
X0327833Y0101581D02*
X0327833Y0095085D01*
X0307833Y0095085D02*
X0307833Y0101581D01*
X0314585Y0078333D02*
X0321081Y0078333D01*
X0259881Y0025381D02*
X0259881Y0018885D01*
X0249881Y0018885D02*
X0249881Y0025381D01*
X0239881Y0025381D02*
X0239881Y0018885D01*
X0229881Y0018885D02*
X0229881Y0025381D01*
X0219881Y0025381D02*
X0219881Y0018885D01*
X0209881Y0018885D02*
X0209881Y0025381D01*
X0199881Y0025381D02*
X0199881Y0018885D01*
X0189881Y0018885D02*
X0189881Y0025381D01*
X0179881Y0025381D02*
X0179881Y0018885D01*
X0169881Y0018885D02*
X0169881Y0025381D01*
X0159881Y0025381D02*
X0159881Y0018885D01*
X0149881Y0018885D02*
X0149881Y0025381D01*
X0139881Y0025381D02*
X0139881Y0018885D01*
X0129881Y0018885D02*
X0129881Y0025381D01*
X0119881Y0025381D02*
X0119881Y0018885D01*
X0109881Y0018885D02*
X0109881Y0025381D01*
X0099881Y0025381D02*
X0099881Y0018885D01*
X0089881Y0018885D02*
X0089881Y0025381D01*
X0079881Y0025381D02*
X0079881Y0018885D01*
X0069881Y0018885D02*
X0069881Y0025381D01*
D13*
X0027833Y0043333D03*
X0027833Y0053333D03*
X0025589Y0123333D03*
X0025589Y0133333D03*
X0025589Y0143333D03*
X0027833Y0178333D03*
X0027833Y0188333D03*
X0212833Y0278333D03*
X0222833Y0278333D03*
X0367833Y0103333D03*
X0367833Y0093333D03*
X0367833Y0083333D03*
X0367833Y0073333D03*
X0292833Y0028333D03*
X0282833Y0028333D03*
D14*
X0027833Y0108333D03*
X0027833Y0158333D03*
D15*
X0187833Y0168333D03*
X0212833Y0138333D03*
X0240727Y0108333D03*
X0240727Y0048333D03*
X0347833Y0118333D03*
X0347833Y0188333D03*
D16*
X0337833Y0188333D03*
X0327833Y0188333D03*
X0317833Y0188333D03*
X0307833Y0188333D03*
X0297833Y0188333D03*
X0287833Y0188333D03*
X0272833Y0138333D03*
X0262833Y0138333D03*
X0252833Y0138333D03*
X0242833Y0138333D03*
X0232833Y0138333D03*
X0222833Y0138333D03*
X0187833Y0148333D03*
X0187833Y0158333D03*
X0187833Y0178333D03*
X0190727Y0108333D03*
X0180727Y0108333D03*
X0170727Y0108333D03*
X0160727Y0108333D03*
X0150727Y0108333D03*
X0140727Y0108333D03*
X0130727Y0108333D03*
X0120727Y0108333D03*
X0110727Y0108333D03*
X0100727Y0108333D03*
X0090727Y0108333D03*
X0080727Y0108333D03*
X0070727Y0108333D03*
X0060727Y0108333D03*
X0050727Y0108333D03*
X0050727Y0048333D03*
X0060727Y0048333D03*
X0070727Y0048333D03*
X0080727Y0048333D03*
X0090727Y0048333D03*
X0100727Y0048333D03*
X0110727Y0048333D03*
X0120727Y0048333D03*
X0130727Y0048333D03*
X0140727Y0048333D03*
X0150727Y0048333D03*
X0160727Y0048333D03*
X0170727Y0048333D03*
X0180727Y0048333D03*
X0190727Y0048333D03*
X0200727Y0048333D03*
X0210727Y0048333D03*
X0220727Y0048333D03*
X0230727Y0048333D03*
X0230727Y0108333D03*
X0220727Y0108333D03*
X0210727Y0108333D03*
X0200727Y0108333D03*
X0287833Y0118333D03*
X0297833Y0118333D03*
X0307833Y0118333D03*
X0317833Y0118333D03*
X0327833Y0118333D03*
X0337833Y0118333D03*
X0357833Y0118333D03*
X0357833Y0188333D03*
D17*
X0327833Y0223333D03*
X0302833Y0223333D03*
X0302833Y0273333D03*
X0327833Y0273333D03*
D18*
X0267833Y0223333D03*
X0147833Y0223333D03*
D19*
X0147833Y0248333D03*
X0267833Y0248333D03*
D20*
X0112833Y0250833D03*
X0112833Y0263333D03*
X0097833Y0263333D03*
X0112833Y0220833D03*
X0112833Y0208333D03*
X0097833Y0208333D03*
X0022833Y0208333D03*
X0022833Y0263333D03*
D21*
X0312833Y0056633D02*
X0312833Y0050033D01*
X0322833Y0050033D02*
X0322833Y0056633D01*
X0342833Y0056633D02*
X0342833Y0050033D01*
X0352833Y0050033D02*
X0352833Y0056633D01*
X0336133Y0033333D02*
X0329533Y0033333D01*
D22*
X0237636Y0118530D02*
X0247873Y0128766D01*
X0247873Y0197900D01*
X0196692Y0154357D02*
X0192715Y0158333D01*
X0187833Y0158333D01*
X0196692Y0154357D02*
X0196692Y0143727D01*
X0192755Y0139790D01*
X0132518Y0139790D01*
X0125825Y0133097D01*
X0125825Y0101286D01*
X0112833Y0088294D01*
X0112833Y0073333D01*
X0110471Y0070971D01*
X0110471Y0048589D01*
X0110727Y0048333D01*
X0100727Y0048333D02*
X0100629Y0048432D01*
X0100629Y0085932D01*
X0115589Y0100892D01*
X0115589Y0144908D01*
X0119014Y0148333D01*
X0187833Y0148333D01*
X0201416Y0137822D02*
X0197085Y0133491D01*
X0150629Y0133491D01*
X0145904Y0128766D01*
X0145904Y0059081D01*
X0140727Y0053904D01*
X0140727Y0048333D01*
X0145904Y0053963D02*
X0145904Y0029357D01*
X0149881Y0025381D01*
X0155747Y0029514D02*
X0159881Y0025381D01*
X0155747Y0029514D02*
X0155747Y0052782D01*
X0160727Y0057762D01*
X0160727Y0108333D01*
X0150727Y0108333D02*
X0150727Y0058786D01*
X0145904Y0053963D01*
X0140727Y0059219D02*
X0135865Y0054357D01*
X0135865Y0029396D01*
X0139881Y0025381D01*
X0129881Y0025381D02*
X0125825Y0029436D01*
X0125825Y0054751D01*
X0130727Y0059652D01*
X0130727Y0108333D01*
X0140727Y0108333D02*
X0140727Y0059219D01*
X0135668Y0059081D02*
X0130944Y0054357D01*
X0130944Y0048550D01*
X0130727Y0048333D01*
X0135668Y0059081D02*
X0135668Y0131522D01*
X0170727Y0108333D02*
X0170727Y0060676D01*
X0165786Y0055735D01*
X0165786Y0029475D01*
X0169881Y0025381D01*
X0175825Y0029436D02*
X0179881Y0025381D01*
X0175825Y0029436D02*
X0175825Y0054751D01*
X0180727Y0059652D01*
X0180727Y0108333D01*
X0190727Y0108333D02*
X0190727Y0059022D01*
X0185865Y0054160D01*
X0185865Y0029396D01*
X0189881Y0025381D01*
X0195707Y0029554D02*
X0199881Y0025381D01*
X0195707Y0029554D02*
X0195707Y0054160D01*
X0200727Y0059180D01*
X0200727Y0108333D01*
X0210727Y0108333D02*
X0211652Y0107408D01*
X0211652Y0057113D01*
X0205747Y0051207D01*
X0205747Y0044121D01*
X0202991Y0041365D01*
X0202991Y0033097D01*
X0200727Y0048333D02*
X0200727Y0052093D01*
X0205747Y0057113D01*
X0205747Y0114987D01*
X0209290Y0118530D01*
X0237636Y0118530D01*
X0233699Y0124042D02*
X0200629Y0124042D01*
X0195904Y0119318D01*
X0195904Y0059475D01*
X0190786Y0054357D01*
X0190786Y0048392D01*
X0190727Y0048333D01*
X0181337Y0048944D02*
X0181337Y0055144D01*
X0185668Y0059475D01*
X0185668Y0118530D01*
X0195471Y0128333D01*
X0227833Y0128333D01*
X0232833Y0133333D01*
X0232833Y0138333D01*
X0242833Y0138333D02*
X0242833Y0133176D01*
X0233699Y0124042D01*
X0181337Y0048944D02*
X0180727Y0048333D01*
X0119723Y0033097D02*
X0119723Y0025538D01*
X0119881Y0025381D01*
X0119723Y0033097D02*
X0114487Y0038333D01*
X0107833Y0038333D01*
X0105747Y0040420D01*
X0105747Y0079199D01*
X0095707Y0095459D02*
X0092833Y0098333D01*
X0080668Y0098333D01*
X0077833Y0095499D01*
X0077833Y0063333D01*
X0072833Y0058333D01*
X0055727Y0058333D01*
X0050727Y0053333D01*
X0050727Y0048333D01*
X0085865Y0029396D02*
X0085865Y0093333D01*
X0095707Y0095459D02*
X0095707Y0029554D01*
X0099881Y0025381D01*
X0089881Y0025381D02*
X0085865Y0029396D01*
D23*
X0120727Y0048333D02*
X0120727Y0087014D01*
X0120707Y0087034D01*
X0106101Y0079554D02*
X0105747Y0079199D01*
X0110727Y0108333D02*
X0110727Y0159337D01*
X0110865Y0159475D01*
X0069133Y0093333D02*
X0069133Y0083491D01*
X0054172Y0068530D01*
X0210727Y0048333D02*
X0210865Y0048196D01*
X0210865Y0040184D01*
X0214408Y0036640D01*
X0221101Y0036640D01*
X0229762Y0027979D01*
X0229762Y0025499D01*
X0229881Y0025381D01*
X0220727Y0048333D02*
X0221101Y0048707D01*
X0221101Y0058294D01*
X0237243Y0074436D01*
X0237243Y0076798D01*
X0237243Y0085459D02*
X0220727Y0101975D01*
X0220727Y0108333D01*
D24*
X0257833Y0126483D02*
X0257833Y0053333D01*
X0252833Y0048333D01*
X0240727Y0048333D01*
X0232420Y0036640D02*
X0220727Y0048333D01*
X0232420Y0036640D02*
X0249448Y0036640D01*
X0249881Y0036207D01*
X0249881Y0025381D01*
X0259881Y0025381D02*
X0272833Y0038333D01*
X0272833Y0053333D01*
X0264802Y0047664D02*
X0253778Y0036640D01*
X0249448Y0036640D01*
X0264802Y0047664D02*
X0264802Y0114987D01*
X0282833Y0133018D01*
X0282833Y0168333D01*
X0277833Y0173333D01*
X0277833Y0213333D01*
X0267833Y0223333D01*
X0222833Y0183333D02*
X0222833Y0138333D01*
X0212833Y0138333D02*
X0212833Y0183333D01*
X0207833Y0188333D01*
X0137833Y0188333D01*
X0137833Y0178333D01*
X0137833Y0188333D02*
X0076337Y0188333D01*
X0070707Y0182703D01*
X0070707Y0108353D01*
X0070727Y0108333D01*
X0060727Y0108333D02*
X0060727Y0186227D01*
X0067833Y0193333D01*
X0212833Y0193333D01*
X0212833Y0198333D01*
X0212833Y0193333D02*
X0222833Y0183333D01*
X0187833Y0168333D02*
X0186455Y0166955D01*
X0120707Y0166955D01*
X0282833Y0043333D02*
X0292833Y0043333D01*
X0297833Y0048333D01*
X0297833Y0073333D01*
X0302833Y0078333D01*
X0317833Y0078333D01*
X0337833Y0083333D02*
X0312833Y0058333D01*
X0312833Y0053333D01*
X0322833Y0053333D02*
X0323070Y0053097D01*
X0323070Y0048845D01*
X0310865Y0036640D01*
X0288030Y0036640D01*
X0282833Y0031444D01*
X0282833Y0028333D01*
X0292833Y0028333D02*
X0311613Y0028333D01*
X0324251Y0040971D01*
X0336455Y0040971D01*
X0342755Y0047270D01*
X0342755Y0053255D01*
X0352833Y0053333D02*
X0357833Y0058333D01*
X0357833Y0118333D01*
X0337833Y0118333D02*
X0337833Y0083333D01*
X0287833Y0118333D02*
X0287833Y0123333D01*
X0297833Y0133333D01*
X0297833Y0173333D01*
X0302833Y0178333D01*
X0362833Y0178333D01*
X0367833Y0183333D01*
X0367833Y0193333D01*
X0362833Y0198333D01*
X0337833Y0198333D01*
X0327833Y0208333D01*
X0327833Y0223333D01*
D25*
X0247833Y0198333D03*
X0212833Y0198333D03*
X0201416Y0137822D03*
X0257833Y0126483D03*
X0237243Y0085459D03*
X0237243Y0076798D03*
X0272833Y0053333D03*
X0282833Y0043333D03*
X0202991Y0033097D03*
X0120707Y0087034D03*
X0106101Y0079554D03*
X0085865Y0093333D03*
X0069133Y0093333D03*
X0054172Y0068530D03*
X0136455Y0132703D03*
X0110865Y0159475D03*
X0120707Y0166955D03*
X0137833Y0178333D03*
D26*
X0136455Y0132703D02*
X0136455Y0132310D01*
X0135668Y0131522D01*
X0220727Y0048333D02*
X0221022Y0048629D01*
X0342755Y0053255D02*
X0342833Y0053333D01*
X0247873Y0197900D02*
X0247833Y0198333D01*
M02*
